<svg width="285" height="38" viewBox="0 0 285 38" fill="none" xmlns="http://www.w3.org/2000/svg">
<path fill-rule="evenodd" clip-rule="evenodd" d="M0 0.859985V36.9502H178.716L183.42 18.9048L178.354 0.859985H0Z" fill="#7B3087"/>
<path fill-rule="evenodd" clip-rule="evenodd" d="M178.408 0.859985L183.436 18.9048L178.768 36.9502H283.649V0.859985H178.408Z" fill="#D7D2CA"/>
<path fill-rule="evenodd" clip-rule="evenodd" d="M15.345 19.125C17.8275 19.125 19.3764 17.7368 19.3764 15.788V15.7347C19.3764 13.545 17.8009 12.3971 15.345 12.3971H11.5272V19.125H15.345ZM8.2439 9.40662H15.612C19.9636 9.40662 22.7131 11.8899 22.7131 15.6546V15.7074C22.7131 19.8992 19.3497 22.0882 15.2382 22.0882H11.5272V28.0959H8.2439V9.40662Z" fill="#FEFEFE"/>
<path fill-rule="evenodd" clip-rule="evenodd" d="M25.3276 9.40686H28.3713L38.3826 22.3287V9.40686H41.6126V28.0962H38.8631L28.5576 14.8V28.0962H25.3276V9.40686Z" fill="#FEFEFE"/>
<path fill-rule="evenodd" clip-rule="evenodd" d="M45.6682 9.40686H59.5234V12.344H48.9521V17.2032H58.3222V20.1397H48.9521V25.159H59.6569V28.0962H45.6682V9.40686Z" fill="#FEFEFE"/>
<path fill-rule="evenodd" clip-rule="evenodd" d="M62.5117 20.1666V9.40649H65.7956V20.0331C65.7956 23.5035 67.5841 25.3728 70.521 25.3728C73.4306 25.3728 75.2191 23.6109 75.2191 20.1666V9.40649H78.503V20.0064C78.503 25.5864 75.3526 28.3894 70.467 28.3894C65.6088 28.3894 62.5117 25.5864 62.5117 20.1666Z" fill="#FEFEFE"/>
<path fill-rule="evenodd" clip-rule="evenodd" d="M82.2651 9.40686H85.762L91.449 18.2443L97.1353 9.40686H100.632V28.0962H97.3489V14.6932L91.449 23.5039H91.3422L85.4951 14.7466V28.0962H82.2651V9.40686Z" fill="#FEFEFE"/>
<path fill-rule="evenodd" clip-rule="evenodd" d="M119.958 18.8048V18.7514C119.958 15.1202 117.315 12.1036 113.605 12.1036C109.893 12.1036 107.304 15.0668 107.304 18.698V18.7514C107.304 22.3826 109.947 25.3992 113.658 25.3992C117.369 25.3992 119.958 22.436 119.958 18.8048ZM103.86 18.8048V18.7514C103.86 13.4918 107.918 9.08643 113.658 9.08643C119.398 9.08643 123.402 13.4384 123.402 18.698V18.7514C123.402 24.011 119.344 28.4164 113.605 28.4164C107.865 28.4164 103.86 24.0644 103.86 18.8048Z" fill="#FEFEFE"/>
<path fill-rule="evenodd" clip-rule="evenodd" d="M126.63 9.40686H129.673L139.685 22.3287V9.40686H142.915V28.0962H140.165L129.86 14.8V28.0962H126.63V9.40686Z" fill="#FEFEFE"/>
<mask id="mask0_808_769" style="mask-type:luminance" maskUnits="userSpaceOnUse" x="0" y="0" width="284" height="37">
<path fill-rule="evenodd" clip-rule="evenodd" d="M0 36.9502H283.649V0.859985H0V36.9502Z" fill="white"/>
</mask>
<g mask="url(#mask0_808_769)">
<path fill-rule="evenodd" clip-rule="evenodd" d="M147.158 28.0959H150.441V9.40662H147.158V28.0959Z" fill="#FEFEFE"/>
<path fill-rule="evenodd" clip-rule="evenodd" d="M166.004 20.6739L162.774 13.1979L159.57 20.6739H166.004ZM161.305 9.27307H164.348L172.571 28.0958H169.101L167.205 23.5843H158.369L156.446 28.0958H153.082L161.305 9.27307Z" fill="#FEFEFE"/>
<path fill-rule="evenodd" clip-rule="evenodd" d="M190.844 9.40686H204.754V12.3968H194.128V17.4962H203.552V20.4867H194.128V28.0962H190.844V9.40686Z" fill="#7B3087"/>
<path fill-rule="evenodd" clip-rule="evenodd" d="M216.47 20.6739L213.24 13.1979L210.036 20.6739H216.47ZM211.771 9.27307H214.814L223.037 28.0958H219.567L217.671 23.5843H208.835L206.912 28.0958H203.548L211.771 9.27307Z" fill="#7B3087"/>
<path fill-rule="evenodd" clip-rule="evenodd" d="M223.196 18.8048V18.7514C223.196 13.4384 227.173 9.08643 232.833 9.08643C236.278 9.08643 238.36 10.2877 240.149 11.9968L238.039 14.4261C236.544 13.038 234.942 12.1036 232.807 12.1036C229.229 12.1036 226.64 15.0401 226.64 18.698V18.7514C226.64 22.4093 229.229 25.3992 232.807 25.3992C235.103 25.3992 236.571 24.4649 238.173 22.9699L240.282 25.1056C238.333 27.135 236.197 28.4164 232.7 28.4164C227.254 28.4164 223.196 24.1712 223.196 18.8048Z" fill="#7B3087"/>
<path fill-rule="evenodd" clip-rule="evenodd" d="M247.247 12.4505H241.32V9.40662H256.484V12.4505H250.558V28.0959H247.247V12.4505Z" fill="#7B3087"/>
<path fill-rule="evenodd" clip-rule="evenodd" d="M257.233 25.3727L259.208 23.0229C260.996 24.5719 262.786 25.4528 265.108 25.4528C267.137 25.4528 268.419 24.5179 268.419 23.1036V23.0496C268.419 21.7148 267.671 20.9941 264.2 20.1932C260.222 19.2316 257.98 18.0575 257.98 14.6132V14.5598C257.98 11.3558 260.65 9.14001 264.36 9.14001C267.084 9.14001 269.246 9.96758 271.142 11.4892L269.38 13.9719C267.698 12.7172 266.016 12.0498 264.307 12.0498C262.385 12.0498 261.263 13.0382 261.263 14.2662V14.3196C261.263 15.7611 262.118 16.4018 265.696 17.2561C269.647 18.2171 271.702 19.632 271.702 22.7293V22.7827C271.702 26.2804 268.952 28.3626 265.028 28.3626C262.172 28.3626 259.475 27.3749 257.233 25.3727Z" fill="#7B3087"/>
</g>
</svg>
